<?xml version="1.0" encoding="utf-8"?>
<svg version="1.1" id="Layer_1" xmlns="http://www.w3.org/2000/svg" xmlns:xlink="http://www.w3.org/1999/xlink" x="0px" y="0px"
	 viewBox="0 0 240 174" style="enable-background:new 0 0 240 174;" xml:space="preserve">
<style type="text/css">
	.st0{fill:#FF2800;}
</style>
<g>
	<path class="st0" d="M71.7,65.5c0,11.1,2.2,19.2,6.8,25.9c10.2,14.6,29.3,24,40.6,26.7c11.3-2.7,30.4-12.2,40.6-26.7
		c4.7-6.7,6.8-14.8,6.8-25.9V0H71.7V65.5z M79,7.4h80.1v58.2c0,9.5-1.7,16.2-5.5,21.7c-8.6,12.4-25,20.6-34.5,23.3
		c-9.5-2.8-25.9-11-34.5-23.3C80.7,81.8,79,75.1,79,65.5V7.4z"/>
	<path class="st0" d="M104.3,65.3h13.3c3.7,0,5.6-1.9,5.6-1.9v37.7c8.4-3.6,18.7-10.1,24.4-18.2c1.9-2.8,4.2-7.2,4.2-17.4V14.8
		h-28.5c0,7.1,0,29.4,0,29.7c0,1.9-1.1,3-3,3H115c-1.9,0-3-1.1-3-3V14.8H86.5l0,32.7C86.5,58.1,87.6,65.3,104.3,65.3z"/>
	<path class="st0" d="M86.5,65.5c0,10.1,2.2,14.6,4.2,17.4c5.9,8.4,16.5,15,25.1,18.5V72.7h-15.6C94.1,72.7,88.6,70,86.5,65.5z"/>
	<polygon class="st0" points="27.8,172.7 45.7,172.7 45.7,168.1 32.7,168.1 32.7,160.9 44.1,160.9 44.1,156.3 32.7,156.3 
		32.7,149.4 45.7,149.4 45.7,144.9 27.8,144.9 	"/>
	<polygon class="st0" points="129,145.6 117.5,163.5 117.5,144.9 112.7,144.9 112.7,172.7 117.3,172.7 117.5,171.9 128.9,154 
		128.9,172.7 133.9,172.7 133.9,144.9 129.2,144.9 	"/>
	<polygon class="st0" points="184.5,156.3 173.1,156.3 173.1,144.9 168.1,144.9 168.1,172.7 173.1,172.7 173.1,160.9 184.5,160.9 
		184.5,172.7 189.4,172.7 189.4,144.9 184.5,144.9 	"/>
	<polygon class="st0" points="84.9,172.7 89.8,172.7 89.8,149.4 101.2,149.4 101.2,172.7 106.1,172.7 106.1,144.9 84.9,144.9 	"/>
	<polygon class="st0" points="73.5,145.7 65.6,161.2 64.9,161.2 57.1,145.7 57,144.9 52.2,144.9 52.2,172.7 57.1,172.7 57.1,156.5 
		63.7,169.4 66.9,169.4 73.5,156.5 73.5,172.7 78.4,172.7 78.4,144.9 73.7,144.9 	"/>
	<polygon class="st0" points="218.8,144.9 218.8,149.4 226.9,149.4 226.9,172.7 231.8,172.7 231.8,149.4 240,149.4 240,144.9 	"/>
	<path class="st0" d="M16.3,156.3c-0.7,0.4-3,2-6.4,2c-2.5,0-5-0.9-5-5.2v-8.2H0v8.2c0,5.8,3.7,9.8,9.8,9.8c2.4,0,4.9-0.8,6.5-1.6
		v11.5h4.9v-27.8h-4.9V156.3z"/>
	<path class="st0" d="M204.1,144.9l-10.6,27.8h5.4l2.5-6.5h10.1l2.5,6.5h5.4l-10.6-27.8H204.1z M202.9,161.5l3.4-9.9h0.1l3.4,9.9
		H202.9z"/>
	<path class="st0" d="M151,144.2c-3.9,0-7.6,1.8-9.6,5c-1,1.6-1.6,3.6-1.6,6.5v6c0,3,0.6,4.9,1.6,6.5c2,3.2,5.6,5,9.6,5
		c3.9,0,7.6-1.8,9.6-5c1-1.6,1.6-3.6,1.6-6.5v-6c0-3-0.6-4.9-1.6-6.5C158.6,146.1,155,144.2,151,144.2z M157.4,162.2
		c0,1.7-0.4,3-1,3.9c-1.2,1.6-3.2,2.7-5.3,2.7c-2.1,0-4.1-1-5.3-2.7c-0.6-0.9-1-2.2-1-3.9v-6.8c0-1.7,0.4-3,1-3.9
		c1.2-1.6,3.2-2.7,5.3-2.7c2.1,0,4.1,1,5.3,2.7c0.6,0.9,1,2.2,1,3.9V162.2z"/>
</g>
</svg>
